<svg id="Calque_1" data-name="Calque 1" xmlns="http://www.w3.org/2000/svg" xmlns:xlink="http://www.w3.org/1999/xlink" viewBox="0 0 1280 608"><defs><style>.cls-1{fill:url(#Dégradé_sans_nom_19);}.cls-2{fill:url(#Dégradé_sans_nom_20);}.cls-3{fill:#5a5b5d;}.cls-4{fill:#f49b05;}.cls-4,.cls-5,.cls-6{fill-rule:evenodd;}.cls-5{fill:#ffd301;}.cls-6{fill:#ea660a;}.cls-7{fill:#fff;}</style><linearGradient id="Dégradé_sans_nom_19" x1="-3" y1="304.43" x2="1280.31" y2="178.5" gradientUnits="userSpaceOnUse"><stop offset="0" stop-color="#ec6a07"/><stop offset="0.04" stop-color="#ee7306"/><stop offset="0.15" stop-color="#f18404"/><stop offset="0.29" stop-color="#f38f02"/><stop offset="0.47" stop-color="#f59601"/><stop offset="1" stop-color="#f59801"/></linearGradient><linearGradient id="Dégradé_sans_nom_20" x1="7.52" y1="308.49" x2="1274.06" y2="171.38" gradientUnits="userSpaceOnUse"><stop offset="0" stop-color="#ec6a07"/><stop offset="0.44" stop-color="#f08004"/><stop offset="1" stop-color="#f59801"/></linearGradient></defs><title>abg-land</title><path class="cls-1" d="M27.86,0,94.62,510.07S111.72,603,0,608V0Z" transform="translate(0)"/><path class="cls-2" d="M173.52,0l63.79,487.79s5.45,87.11,97.31,75.8S1280,440,1280,440V0Z" transform="translate(0)"/><path class="cls-3" d="M86.49,45H80.32V37.7h1.24v6.16h4.93Z" transform="translate(0)"/><path class="cls-3" d="M95.49,41.74a5.1,5.1,0,0,1-.34,2.13,1.77,1.77,0,0,1-1.17.91,8.28,8.28,0,0,1-2.13.19H90.51a6.93,6.93,0,0,1-2.22-.26,1.69,1.69,0,0,1-1.05-1A7,7,0,0,1,87,41.44a8.89,8.89,0,0,1,.22-2.32,1.72,1.72,0,0,1,1-1.15,6.23,6.23,0,0,1,2.32-.31h1.33a6.14,6.14,0,0,1,2.46.35,1.76,1.76,0,0,1,1,1.26A11.13,11.13,0,0,1,95.49,41.74Zm-1.25,0V41a3.93,3.93,0,0,0-.2-1.48,1,1,0,0,0-.76-.57,7.79,7.79,0,0,0-1.47-.09H90.6a3.6,3.6,0,0,0-1.9.31c-.31.25-.48.87-.48,1.84v.69c0,.94.17,1.54.49,1.78a3.73,3.73,0,0,0,1.86.29h1.26a7.41,7.41,0,0,0,1.44-.09,1,1,0,0,0,.76-.54A3.59,3.59,0,0,0,94.24,41.7Z" transform="translate(0)"/><path class="cls-3" d="M105.3,41.06v.72a3.78,3.78,0,0,1-.59,2.5,3.33,3.33,0,0,1-2.46.69H100a3.39,3.39,0,0,1-2.63-.76,4.29,4.29,0,0,1-.6-2.7A9.83,9.83,0,0,1,97,39.26a1.9,1.9,0,0,1,1-1.24,4.94,4.94,0,0,1,2.22-.38h2a5,5,0,0,1,2.16.36,1.82,1.82,0,0,1,1,1.81H104a1,1,0,0,0-.58-.9,2.41,2.41,0,0,0-1.09-.21l-1.23,0-.94,0c-1,0-1.59.23-1.86.64a4.2,4.2,0,0,0-.3,2,9,9,0,0,0,.07,1.45,1.05,1.05,0,0,0,.53.79,3.31,3.31,0,0,0,1.43.22h2.16a2.48,2.48,0,0,0,1.43-.26,2,2,0,0,0,.35-1.4h-3.07V41.06Z" transform="translate(0)"/><path class="cls-3" d="M115.15,42.82a1.78,1.78,0,0,1-.9,1.81,6.82,6.82,0,0,1-2.68.34H110a6.93,6.93,0,0,1-2.22-.26,1.69,1.69,0,0,1-1-1,6.93,6.93,0,0,1-.26-2.22,8.12,8.12,0,0,1,.23-2.34,1.68,1.68,0,0,1,1-1.14,6.14,6.14,0,0,1,2.31-.31h1.61a5.67,5.67,0,0,1,2.62.47,1.68,1.68,0,0,1,.91,1.36c0,.12,0,.53,0,1.19v1.06h-7.57c0,1,.17,1.58.52,1.84a3.84,3.84,0,0,0,1.92.3h1.53a7.17,7.17,0,0,0,1.77-.13.87.87,0,0,0,.66-.93ZM114,40.68a10.89,10.89,0,0,0,0-1.11.85.85,0,0,0-.75-.69,8.19,8.19,0,0,0-1.66-.11h-1.48a4.08,4.08,0,0,0-1.92.29c-.36.23-.54.77-.55,1.62Z" transform="translate(0)"/><path class="cls-3" d="M128.69,41.22a2.16,2.16,0,0,0-2.45-2.45,2.6,2.6,0,0,0-2.15.74,3.81,3.81,0,0,0-.51,2.28V45h-1.15V41.71a4.18,4.18,0,0,0-.42-2.14,2.12,2.12,0,0,0-1.93-.8,3.24,3.24,0,0,0-2,.5,2.41,2.41,0,0,0-.67,1.95V45h-1.12V41.25q0-3.55,3.41-3.55a7.8,7.8,0,0,1,1.92.17,2.37,2.37,0,0,1,1.44,1.2,2.78,2.78,0,0,1,2.66-1.37,15.76,15.76,0,0,1,1.76.06c1.59.27,2.39,1.43,2.39,3.49V45H128.7Z" transform="translate(0)"/><path class="cls-3" d="M139.88,42.82a1.79,1.79,0,0,1-.91,1.81,6.79,6.79,0,0,1-2.68.34h-1.61a7,7,0,0,1-2.23-.26,1.73,1.73,0,0,1-1-1,6.93,6.93,0,0,1-.26-2.22,8.5,8.5,0,0,1,.23-2.34,1.68,1.68,0,0,1,1-1.14,6.14,6.14,0,0,1,2.31-.31h1.61a5.64,5.64,0,0,1,2.62.47,1.65,1.65,0,0,1,.9,1.36c0,.12,0,.53,0,1.19v1.06H132.3c0,1,.17,1.58.52,1.84a3.84,3.84,0,0,0,1.92.3h1.52a7.21,7.21,0,0,0,1.78-.13.84.84,0,0,0,.65-.93Zm-1.17-2.14c0-.67,0-1-.05-1.11a.85.85,0,0,0-.74-.69,8.33,8.33,0,0,0-1.66-.11h-1.49a4.08,4.08,0,0,0-1.92.29c-.36.23-.54.77-.55,1.62Z" transform="translate(0)"/><path class="cls-3" d="M145.68,37.7a3.31,3.31,0,0,1,2.34.78,3,3,0,0,1,.84,2.28V45h-1.24V40.6a1.7,1.7,0,0,0-.53-1.34,2,2,0,0,0-1.41-.49h-1.53a2,2,0,0,0-1.41.49,1.67,1.67,0,0,0-.54,1.34V45H141V40.76a3,3,0,0,1,.83-2.28,3.35,3.35,0,0,1,2.35-.78Z" transform="translate(0)"/><path class="cls-3" d="M153.89,38.8v3.58a1.49,1.49,0,0,0,.42,1.18,1.89,1.89,0,0,0,1.05.32V45h-.08a2.74,2.74,0,0,1-2-.63,3,3,0,0,1-.59-2.08V38.8h-3.27V37.7h8.22v1.1Z" transform="translate(0)"/><path class="cls-3" d="M83.84,27.48l-.48,6.7a5.81,5.81,0,0,0-.72,0h-1.4a5.62,5.62,0,0,0-.7,0c.64-3.43,1.2-6.84,1.71-10.24s1-6.84,1.38-10.33l.61.1a4,4,0,0,0,.62,0,3.69,3.69,0,0,0,.56,0l.63-.1c.54,1.2,1.11,2.41,1.69,3.65L89.51,21c.59,1.23,1.18,2.43,1.77,3.61s1.15,2.3,1.69,3.36q1.8-3.36,3.58-7t3.4-7.29a6.62,6.62,0,0,0,1.29.14,6.51,6.51,0,0,0,1.26-.14q.3,2.57.64,5.54c.23,2,.45,3.91.68,5.8s.44,3.65.66,5.29.41,2.95.59,3.94c-.4,0-.8,0-1.21,0h-2.44c-.42,0-.84,0-1.26,0-.1-2-.26-4.27-.49-6.68s-.47-4.76-.71-7.12h0l-3.36,7c-1.1,2.27-2.19,4.56-3.27,6.85l-.28,0h-.57l-.29,0C90.07,32,89,29.72,87.92,27.48s-2.16-4.51-3.31-6.8h-.06C84.24,23,84,25.24,83.84,27.48Z" transform="translate(0)"/><path class="cls-3" d="M123.5,15.91a6.91,6.91,0,0,0-3.49-.83,6.81,6.81,0,0,0-2.74.58,7.14,7.14,0,0,0-2.43,1.76,9.13,9.13,0,0,0-1.72,2.92,11.67,11.67,0,0,0-.66,4.12,11.07,11.07,0,0,0,.49,3.33,8,8,0,0,0,1.43,2.65,6.3,6.3,0,0,0,2.27,1.75,7.07,7.07,0,0,0,3.08.64c.26,0,.55,0,.89,0l.95-.11a5.11,5.11,0,0,0,.85-.17,2,2,0,0,0,.57-.22,6.89,6.89,0,0,0,.07-.91c0-.35,0-.76,0-1.2,0-1.62,0-2.81-.09-3.59s-.09-1.29-.11-1.57a7.52,7.52,0,0,0,.79.11c.33,0,.8,0,1.42,0s1.25,0,1.59,0a8.14,8.14,0,0,0,.83-.11,5.28,5.28,0,0,0-.11.78c0,.36-.05.77-.07,1.24s0,1,0,1.51,0,1,0,1.5v1c0,.49,0,1,0,1.38a5.73,5.73,0,0,0,.07.93,37,37,0,0,1-4,.9,26.07,26.07,0,0,1-4,.32,15.83,15.83,0,0,1-4.74-.67,10.84,10.84,0,0,1-3.75-2,9.32,9.32,0,0,1-2.45-3.15,9.46,9.46,0,0,1-.88-4.15,12.31,12.31,0,0,1,.94-5,9.73,9.73,0,0,1,2.61-3.57A11.23,11.23,0,0,1,115,13.93a16.26,16.26,0,0,1,4.92-.72,14.7,14.7,0,0,1,3.93.47A16.14,16.14,0,0,1,127.16,15c-.17.52-.32,1-.47,1.52s-.28,1-.38,1.54h-.42A7.31,7.31,0,0,0,123.5,15.91Z" transform="translate(0)"/><path class="cls-3" d="M131.75,17.49c0-1.29-.1-2.58-.17-3.88.9,0,1.78,0,2.66.08s1.76.06,2.66.06c1.48,0,2.79,0,3.94,0s1.92-.07,2.32-.1a5.27,5.27,0,0,0-.12,1.25,7.2,7.2,0,0,0,0,.75q0,.27.09.6l-1.9-.12c-.69,0-1.36-.08-2-.12l-1.75-.09-1.11,0c-.07,1.1-.12,2.19-.13,3.27s0,2.16,0,3.26c1.3,0,2.47,0,3.52-.08l3.28-.15a7.75,7.75,0,0,0-.12.79,5.12,5.12,0,0,0,0,.56,4.38,4.38,0,0,0,0,.5c0,.17.07.41.11.73-2.27-.18-4.54-.28-6.8-.28,0,.64,0,1.28,0,1.92s0,1.28,0,1.92c0,1.3,0,2.54.08,3.75,1.14,0,2.28,0,3.42-.1s2.28-.15,3.45-.3a5.16,5.16,0,0,0-.09.6,7.05,7.05,0,0,0,0,1.5,1.54,1.54,0,0,0,.09.44l-2,0h-9l-.58,0c.07-1.23.13-2.49.17-3.78s.06-2.76.06-4.42V21.9Q131.81,19.43,131.75,17.49Z" transform="translate(0)"/><path class="cls-3" d="M147,17.49c0-1.29-.09-2.58-.17-3.88l1.11.1c.4,0,.85,0,1.35,0s.95,0,1.36,0l1.1-.1c-.08,1.3-.15,2.59-.19,3.88s-.06,2.76-.06,4.41V26c0,1.14,0,2.24,0,3.3s0,2,0,2.76c1.14,0,2.27,0,3.41-.1s2.29-.15,3.45-.3a5.16,5.16,0,0,0-.09.6,9.39,9.39,0,0,0,0,1.5,1.54,1.54,0,0,0,.09.44l-2,0h-9l-.58,0c.08-1.23.13-2.49.17-3.78s.05-2.76.05-4.42V21.9C147.06,20.25,147.05,18.78,147,17.49Z" transform="translate(0)"/><path class="cls-4" d="M58.64,43.05A1.13,1.13,0,0,1,58,44.46l-2.71.72a1,1,0,0,1-1.15-.86L53.26,41a1.11,1.11,0,0,1,.55-1.38l2.66-.94a1,1,0,0,1,1.24.83l.93,3.5Z" transform="translate(0)"/><path class="cls-5" d="M54.3,26.74a1.44,1.44,0,0,1-.59,1.62L51.16,29.7c-.45.23-.93-.05-1.1-.66l-.87-3.28a1.53,1.53,0,0,1,.5-1.58l2.5-1.55c.48-.3,1,0,1.18.61l.93,3.5Z" transform="translate(0)"/><path class="cls-4" d="M63.71,32a1.44,1.44,0,0,1-.79,1.71l-3.21,1.25a1,1,0,0,1-1.32-.79l-1-3.6a1.47,1.47,0,0,1,.67-1.66l3.13-1.51a1,1,0,0,1,1.44.74l1,3.86Z" transform="translate(0)"/><path class="cls-5" d="M56.47,34.9a1.27,1.27,0,0,1-.62,1.51l-2.63,1a.9.9,0,0,1-1.12-.76l-.87-3.28a1.28,1.28,0,0,1,.52-1.48l2.58-1.24c.49-.24,1,.06,1.21.72l.93,3.5Z" transform="translate(0)"/><path class="cls-4" d="M69.8,18.36a2,2,0,0,1-1,2.12l-3.8,2a1,1,0,0,1-1.53-.69l-1.06-4a2,2,0,0,1,.81-2L67,13.46a1.07,1.07,0,0,1,1.7.6l1.14,4.3Z" transform="translate(0)"/><path class="cls-6" d="M75.12,38.38a1.5,1.5,0,0,1-1.05,1.81l-4,1.07a1.36,1.36,0,0,1-1.62-1l-1-4a1.45,1.45,0,0,1,.88-1.75l4-1.4a1.34,1.34,0,0,1,1.78.93l1.14,4.29Z" transform="translate(0)"/><path class="cls-6" d="M72.46,28.37a1.71,1.71,0,0,1-1,2l-3.92,1.53A1.18,1.18,0,0,1,66,31l-1.06-4a1.69,1.69,0,0,1,.85-1.89l3.83-1.85a1.18,1.18,0,0,1,1.74.76l1.14,4.3Z" transform="translate(0)"/><path class="cls-5" d="M61.31,23a1.66,1.66,0,0,1-.75,1.84l-3.11,1.63a.89.89,0,0,1-1.29-.68l-1-3.6a1.7,1.7,0,0,1,.64-1.77l3-1.89a.9.9,0,0,1,1.4.61l1,3.86Z" transform="translate(0)"/><path class="cls-6" d="M66.09,40.94a1.28,1.28,0,0,1-.82,1.58L62,43.4a1.17,1.17,0,0,1-1.35-.91l-1-3.6a1.25,1.25,0,0,1,.7-1.54l3.23-1.14a1.15,1.15,0,0,1,1.48.87l1,3.86Z" transform="translate(0)"/><rect class="cls-7" y="60" width="1280" height="0.01"/></svg>