<svg id="Calque_1" data-name="Calque 1" xmlns="http://www.w3.org/2000/svg" xmlns:xlink="http://www.w3.org/1999/xlink" viewBox="0 0 1280 1405.57"><defs><style>.cls-1{fill:url(#Dégradé_sans_nom_19);}.cls-2{fill:url(#Dégradé_sans_nom_20);}.cls-3{fill:#5a5b5d;}.cls-4{fill:#f49b05;}.cls-4,.cls-5,.cls-6{fill-rule:evenodd;}.cls-5{fill:#ffd301;}.cls-6{fill:#ea660a;}.cls-7{fill:#fff;}.cls-8{opacity:0.1;}.cls-10,.cls-11,.cls-12,.cls-13,.cls-14,.cls-15,.cls-16,.cls-17,.cls-9{fill:none;stroke:#fff;stroke-miterlimit:10;}.cls-9{stroke-width:4px;}.cls-10{stroke-width:5px;}.cls-11{stroke-width:6px;}.cls-12{stroke-width:8px;}.cls-13{stroke-width:10px;}.cls-14{stroke-width:13px;}.cls-15{stroke-width:16px;}.cls-16{stroke-width:18px;}.cls-17{stroke-width:21px;}</style><linearGradient id="Dégradé_sans_nom_19" x1="-3" y1="-72.95" x2="1280.31" y2="-198.88" gradientUnits="userSpaceOnUse"><stop offset="0" stop-color="#ec6a07"/><stop offset="0.04" stop-color="#ee7306"/><stop offset="0.15" stop-color="#f18404"/><stop offset="0.29" stop-color="#f38f02"/><stop offset="0.47" stop-color="#f59601"/><stop offset="1" stop-color="#f59801"/></linearGradient><radialGradient id="Dégradé_sans_nom_20" cx="527.37" cy="-95.08" r="658.24" gradientUnits="userSpaceOnUse"><stop offset="0" stop-color="#ec6a07"/><stop offset="0.44" stop-color="#f08004"/><stop offset="1" stop-color="#f59801"/></radialGradient></defs><title>bg-resid</title><path class="cls-1" d="M27.86-377.38,94.62,132.69s17.1,93-94.62,97.93v-608Z" transform="translate(0 377.38)"/><path class="cls-2" d="M173.52-377.38l63.79,487.79s5.45,87.11,97.31,75.8S1280,62.62,1280,62.62v-440Z" transform="translate(0 377.38)"/><path class="cls-3" d="M135.34,45h-6.17V37.7h1.23v6.16h4.94Z" transform="translate(0 377.38)"/><path class="cls-3" d="M144.34,41.74a5.1,5.1,0,0,1-.34,2.13,1.79,1.79,0,0,1-1.17.91,8.32,8.32,0,0,1-2.14.19h-1.33a6.93,6.93,0,0,1-2.22-.26,1.67,1.67,0,0,1-1-1,7,7,0,0,1-.26-2.23,8.47,8.47,0,0,1,.22-2.32,1.72,1.72,0,0,1,1-1.15,6.21,6.21,0,0,1,2.31-.31h1.34a6.14,6.14,0,0,1,2.46.35,1.76,1.76,0,0,1,1,1.26A11.13,11.13,0,0,1,144.34,41.74Zm-1.25,0V41a3.69,3.69,0,0,0-.21-1.48,1,1,0,0,0-.76-.57,7.65,7.65,0,0,0-1.47-.09h-1.2a3.6,3.6,0,0,0-1.9.31c-.32.25-.48.87-.48,1.84v.69c0,.94.17,1.54.49,1.78a3.7,3.7,0,0,0,1.86.29h1.25a7.47,7.47,0,0,0,1.45-.09,1,1,0,0,0,.76-.54A3.59,3.59,0,0,0,143.09,41.7Z" transform="translate(0 377.38)"/><path class="cls-3" d="M154.15,41.06v.72a3.78,3.78,0,0,1-.59,2.5,3.35,3.35,0,0,1-2.46.69h-2.23a3.42,3.42,0,0,1-2.64-.76,4.37,4.37,0,0,1-.59-2.7,9.83,9.83,0,0,1,.19-2.25,1.9,1.9,0,0,1,.95-1.24,4.94,4.94,0,0,1,2.22-.38h2a5,5,0,0,1,2.17.36,1.82,1.82,0,0,1,1,1.81h-1.27a1,1,0,0,0-.58-.9,2.36,2.36,0,0,0-1.09-.21l-1.22,0-.95,0c-1,0-1.58.23-1.85.64a4.2,4.2,0,0,0-.3,2,9,9,0,0,0,.07,1.45,1.05,1.05,0,0,0,.53.79,3.28,3.28,0,0,0,1.43.22h2.16a2.5,2.5,0,0,0,1.43-.26,2,2,0,0,0,.35-1.4h-3.07V41.06Z" transform="translate(0 377.38)"/><path class="cls-3" d="M164,42.82a1.78,1.78,0,0,1-.9,1.81,6.85,6.85,0,0,1-2.68.34h-1.61a6.93,6.93,0,0,1-2.22-.26,1.69,1.69,0,0,1-1.05-1,6.66,6.66,0,0,1-.26-2.22,8.12,8.12,0,0,1,.23-2.34,1.66,1.66,0,0,1,1-1.14,6.14,6.14,0,0,1,2.31-.31h1.61a5.67,5.67,0,0,1,2.62.47,1.67,1.67,0,0,1,.9,1.36c0,.12,0,.53,0,1.19v1.06h-7.57c0,1,.17,1.58.52,1.84a3.84,3.84,0,0,0,1.92.3h1.53a7.17,7.17,0,0,0,1.77-.13.85.85,0,0,0,.65-.93Zm-1.17-2.14c0-.67,0-1,0-1.11a.85.85,0,0,0-.75-.69,8.19,8.19,0,0,0-1.66-.11H158.9a4.08,4.08,0,0,0-1.92.29c-.36.23-.54.77-.55,1.62Z" transform="translate(0 377.38)"/><path class="cls-3" d="M177.54,41.22a2.16,2.16,0,0,0-2.45-2.45,2.64,2.64,0,0,0-2.16.74,3.9,3.9,0,0,0-.5,2.28V45h-1.15V41.71a4.18,4.18,0,0,0-.42-2.14,2.13,2.13,0,0,0-1.93-.8,3.24,3.24,0,0,0-2,.5,2.41,2.41,0,0,0-.67,1.95V45h-1.12V41.25c0-2.37,1.14-3.55,3.4-3.55a7.84,7.84,0,0,1,1.93.17,2.33,2.33,0,0,1,1.43,1.2,2.8,2.8,0,0,1,2.67-1.37,15.88,15.88,0,0,1,1.76.06c1.58.27,2.38,1.43,2.38,3.49V45h-1.11Z" transform="translate(0 377.38)"/><path class="cls-3" d="M188.73,42.82a1.79,1.79,0,0,1-.91,1.81,6.85,6.85,0,0,1-2.69.34h-1.6a7,7,0,0,1-2.23-.26,1.7,1.7,0,0,1-1-1,6.93,6.93,0,0,1-.26-2.22,8.12,8.12,0,0,1,.23-2.34,1.69,1.69,0,0,1,1-1.14,6.23,6.23,0,0,1,2.32-.31h1.6a5.66,5.66,0,0,1,2.63.47,1.67,1.67,0,0,1,.9,1.36c0,.12,0,.53,0,1.19v1.06h-7.58c0,1,.17,1.58.52,1.84a3.81,3.81,0,0,0,1.92.3h1.52a7.21,7.21,0,0,0,1.78-.13.85.85,0,0,0,.65-.93Zm-1.18-2.14a10.89,10.89,0,0,0,0-1.11.85.85,0,0,0-.75-.69,8.19,8.19,0,0,0-1.66-.11h-1.48a4.08,4.08,0,0,0-1.92.29c-.36.23-.54.77-.55,1.62Z" transform="translate(0 377.38)"/><path class="cls-3" d="M194.53,37.7a3.32,3.32,0,0,1,2.34.78,3,3,0,0,1,.84,2.28V45h-1.24V40.6a1.7,1.7,0,0,0-.53-1.34,2,2,0,0,0-1.41-.49H193a2.06,2.06,0,0,0-1.42.49,1.7,1.7,0,0,0-.53,1.34V45h-1.24V40.76a3,3,0,0,1,.84-2.28A3.32,3.32,0,0,1,193,37.7Z" transform="translate(0 377.38)"/><path class="cls-3" d="M202.74,38.8v3.58a1.49,1.49,0,0,0,.42,1.18,1.89,1.89,0,0,0,1.05.32V45h-.08a2.74,2.74,0,0,1-2-.63,3,3,0,0,1-.59-2.08V38.8h-3.27V37.7h8.22v1.1Z" transform="translate(0 377.38)"/><path class="cls-3" d="M132.68,27.48c-.16,2.24-.31,4.47-.47,6.7a5.84,5.84,0,0,0-.73,0h-1.39a5.62,5.62,0,0,0-.7,0c.64-3.43,1.2-6.84,1.71-10.24s1-6.84,1.37-10.33l.62.1a4,4,0,0,0,.62,0,3.78,3.78,0,0,0,.56,0l.63-.1c.54,1.2,1.1,2.41,1.69,3.65l1.77,3.7c.59,1.23,1.18,2.43,1.77,3.61s1.15,2.3,1.69,3.36q1.8-3.36,3.58-7t3.4-7.29a6.62,6.62,0,0,0,1.29.14,6.34,6.34,0,0,0,1.25-.14c.21,1.71.42,3.56.65,5.54s.45,3.91.67,5.8.44,3.65.67,5.29.41,2.95.59,3.94c-.4,0-.8,0-1.21,0h-2.44c-.42,0-.84,0-1.26,0-.1-2-.26-4.27-.49-6.68s-.47-4.76-.71-7.12h-.06c-1.14,2.36-2.26,4.67-3.35,7s-2.19,4.56-3.27,6.85l-.29,0h-.56l-.29,0q-1.62-3.34-3.22-6.7t-3.31-6.8h-.06Q132.92,24.12,132.68,27.48Z" transform="translate(0 377.38)"/><path class="cls-3" d="M172.35,15.91a7.31,7.31,0,0,0-6.24-.25,7.2,7.2,0,0,0-2.42,1.76A8.78,8.78,0,0,0,162,20.34a11.67,11.67,0,0,0-.66,4.12,11.07,11.07,0,0,0,.49,3.33,8,8,0,0,0,1.43,2.65,6.22,6.22,0,0,0,2.27,1.75,7.07,7.07,0,0,0,3.08.64c.26,0,.55,0,.88,0l1-.11a5.11,5.11,0,0,0,.85-.17,2,2,0,0,0,.57-.22,6.89,6.89,0,0,0,.07-.91c0-.35,0-.76,0-1.2,0-1.62,0-2.81-.09-3.59s-.1-1.29-.11-1.57a7.52,7.52,0,0,0,.79.11c.33,0,.8,0,1.42,0s1.24,0,1.59,0a7.51,7.51,0,0,0,.82-.11,5.63,5.63,0,0,0-.1.78c0,.36-.05.77-.07,1.24s0,1-.05,1.51,0,1,0,1.5v1c0,.49,0,1,0,1.38a5.73,5.73,0,0,0,.07.93,36.67,36.67,0,0,1-4,.9,25.85,25.85,0,0,1-4,.32,15.83,15.83,0,0,1-4.74-.67,10.84,10.84,0,0,1-3.75-2,9.2,9.2,0,0,1-2.45-3.15,9.46,9.46,0,0,1-.88-4.15,12.31,12.31,0,0,1,.94-5,9.82,9.82,0,0,1,2.6-3.57,11.28,11.28,0,0,1,3.94-2.14,16.26,16.26,0,0,1,4.92-.72,14.7,14.7,0,0,1,3.93.47A16.14,16.14,0,0,1,176,15c-.17.52-.32,1-.47,1.52s-.28,1-.38,1.54h-.42A7.41,7.41,0,0,0,172.35,15.91Z" transform="translate(0 377.38)"/><path class="cls-3" d="M180.6,17.49c0-1.29-.1-2.58-.17-3.88.9,0,1.78,0,2.66.08s1.76.06,2.66.06c1.48,0,2.79,0,3.94,0s1.92-.07,2.32-.1a5.27,5.27,0,0,0-.12,1.25,7.2,7.2,0,0,0,0,.75q0,.27.09.6l-1.91-.12c-.68,0-1.35-.08-2-.12l-1.75-.09-1.11,0c-.08,1.1-.12,2.19-.13,3.27s0,2.16,0,3.26c1.29,0,2.47,0,3.51-.08l3.29-.15a7.75,7.75,0,0,0-.12.79,5.09,5.09,0,0,0,0,.56,2.92,2.92,0,0,0,0,.5c0,.17.07.41.11.73-2.28-.18-4.55-.28-6.8-.28,0,.64,0,1.28,0,1.92s0,1.28,0,1.92c0,1.3,0,2.54.08,3.75,1.14,0,2.28,0,3.42-.1s2.28-.15,3.45-.3a5.35,5.35,0,0,0-.1.6c0,.18,0,.43,0,.75s0,.57,0,.75a1.51,1.51,0,0,0,.1.44l-2,0h-9l-.58,0c.07-1.23.13-2.49.17-3.78s.05-2.76.05-4.42V21.9C180.65,20.25,180.63,18.78,180.6,17.49Z" transform="translate(0 377.38)"/><path class="cls-3" d="M195.86,17.49c0-1.29-.1-2.58-.17-3.88l1.11.1c.4,0,.85,0,1.35,0s.95,0,1.35,0l1.11-.1c-.08,1.3-.15,2.59-.19,3.88s-.06,2.76-.06,4.41V26c0,1.14,0,2.24,0,3.3s0,2,0,2.76c1.14,0,2.27,0,3.41-.1s2.29-.15,3.44-.3c0,.22-.06.42-.08.6a5.19,5.19,0,0,0,0,.75,5.19,5.19,0,0,0,0,.75,2.05,2.05,0,0,0,.08.44l-2,0h-9l-.58,0c.07-1.23.13-2.49.17-3.78s0-2.76,0-4.42V21.9C195.91,20.25,195.9,18.78,195.86,17.49Z" transform="translate(0 377.38)"/><path class="cls-4" d="M107.49,43.05a1.13,1.13,0,0,1-.65,1.41l-2.71.72a1,1,0,0,1-1.15-.86L102.1,41a1.12,1.12,0,0,1,.56-1.38l2.65-.94a1,1,0,0,1,1.25.83l.93,3.5Z" transform="translate(0 377.38)"/><path class="cls-5" d="M103.15,26.74a1.44,1.44,0,0,1-.59,1.62L100,29.7c-.45.23-.93-.05-1.1-.66L98,25.76a1.51,1.51,0,0,1,.5-1.58l2.5-1.55c.48-.3,1,0,1.18.61l.93,3.5Z" transform="translate(0 377.38)"/><path class="cls-4" d="M112.55,32a1.42,1.42,0,0,1-.78,1.71l-3.21,1.25a1,1,0,0,1-1.32-.79l-.95-3.6a1.48,1.48,0,0,1,.66-1.66l3.14-1.51a1,1,0,0,1,1.44.74l1,3.86Z" transform="translate(0 377.38)"/><path class="cls-5" d="M105.32,34.9a1.28,1.28,0,0,1-.62,1.51l-2.63,1c-.46.18-1-.17-1.13-.76l-.87-3.28a1.29,1.29,0,0,1,.53-1.48l2.58-1.24c.49-.24,1,.06,1.21.72l.93,3.5Z" transform="translate(0 377.38)"/><path class="cls-4" d="M118.65,18.36a2,2,0,0,1-1,2.12l-3.8,2a1,1,0,0,1-1.53-.69l-1.06-4a2,2,0,0,1,.81-2l3.71-2.3a1.06,1.06,0,0,1,1.69.6l1.15,4.3Z" transform="translate(0 377.38)"/><path class="cls-6" d="M124,38.38a1.5,1.5,0,0,1-1,1.81l-4,1.07a1.35,1.35,0,0,1-1.61-1l-1.06-4a1.47,1.47,0,0,1,.89-1.75l4-1.4a1.34,1.34,0,0,1,1.78.93L124,38.38Z" transform="translate(0 377.38)"/><path class="cls-6" d="M121.31,28.37a1.71,1.71,0,0,1-1,2l-3.92,1.53a1.18,1.18,0,0,1-1.57-.84l-1.06-4a1.68,1.68,0,0,1,.85-1.89l3.83-1.85a1.18,1.18,0,0,1,1.74.76l1.14,4.3Z" transform="translate(0 377.38)"/><path class="cls-5" d="M110.16,23a1.67,1.67,0,0,1-.75,1.84l-3.11,1.63a.89.89,0,0,1-1.29-.68l-1-3.6a1.68,1.68,0,0,1,.64-1.77l3-1.89a.91.91,0,0,1,1.41.61l1,3.86Z" transform="translate(0 377.38)"/><path class="cls-6" d="M114.94,40.94a1.28,1.28,0,0,1-.82,1.58l-3.31.88a1.16,1.16,0,0,1-1.35-.91l-.95-3.6a1.26,1.26,0,0,1,.69-1.54l3.24-1.14a1.14,1.14,0,0,1,1.47.87l1,3.86Z" transform="translate(0 377.38)"/><rect class="cls-7" y="437.37" width="1280" height="0.01"/><g class="cls-8"><circle class="cls-9" cx="519.49" cy="1019.26" r="384.31"/><circle class="cls-9" cx="523.33" cy="1023.09" r="351.71"/><circle class="cls-10" cx="520.97" cy="1021.61" r="321.46"/><circle class="cls-11" cx="519.53" cy="1020.97" r="293.22"/><circle class="cls-12" cx="521.65" cy="1020.6" r="261.31"/><circle class="cls-13" cx="522.33" cy="1023.09" r="229.84"/><circle class="cls-14" cx="521.49" cy="1021.26" r="196.43"/><circle class="cls-15" cx="519.53" cy="1019.26" r="162.87"/><circle class="cls-16" cx="523.33" cy="1019.26" r="131.77"/><circle class="cls-17" cx="522.33" cy="1021.26" r="103.9"/><circle class="cls-17" cx="522.33" cy="1021.26" r="70.7"/><circle class="cls-7" cx="521.33" cy="1021.6" r="50.28"/></g></svg>