<?xml version="1.0" encoding="utf-8"?>
<!-- Generator: Adobe Illustrator 23.0.1, SVG Export Plug-In . SVG Version: 6.00 Build 0)  -->
<svg version="1.1" id="Calque_1" xmlns="http://www.w3.org/2000/svg" xmlns:xlink="http://www.w3.org/1999/xlink" x="0px" y="0px"
	 viewBox="0 0 497.7 145.7" style="enable-background:new 0 0 497.7 145.7;" xml:space="preserve">
<style type="text/css">
	.st0{fill:#5A5B5D;}
	.st1{fill-rule:evenodd;clip-rule:evenodd;fill:#F49B05;}
	.st2{fill-rule:evenodd;clip-rule:evenodd;fill:#FFD301;}
	.st3{fill-rule:evenodd;clip-rule:evenodd;fill:#EA660A;}
</style>
<title>logo mgel logement</title>
<path class="st0" d="M170.1,144.6H142v-33.1h5.6v28.1h22.5L170.1,144.6z"/>
<path class="st0" d="M211.1,129.9c0,4.4-0.5,7.6-1.6,9.7c-1.1,2.1-3,3.6-5.3,4.1c-2,0.6-5.2,0.9-9.7,0.9h-6.1c-4.6,0-8-0.4-10.1-1.2
	c-2.2-0.7-4-2.5-4.8-4.7c-0.8-2.1-1.2-5.5-1.2-10.2c0-4.9,0.4-8.4,1-10.6c0.6-2.4,2.3-4.3,4.6-5.3c2.2-1,5.7-1.4,10.5-1.4h6.1
	c5.2,0,9,0.5,11.2,1.6c2.3,1.1,4,3.3,4.5,5.8C210.8,120.8,211.1,124.5,211.1,129.9z M205.4,129.8v-3.2c0-3.2-0.3-5.4-0.9-6.7
	c-0.7-1.4-2-2.3-3.5-2.6c-2.2-0.4-4.5-0.5-6.7-0.4h-5.5c-4.6,0-7.4,0.5-8.7,1.4c-1.4,1.2-2.2,4-2.2,8.4v3.2c0,4.3,0.8,7,2.2,8.1
	c1.2,0.9,4,1.3,8.5,1.3h5.7c2.2,0.1,4.4-0.1,6.6-0.4c1.5-0.2,2.8-1.2,3.5-2.5C205.1,135.1,205.4,132.8,205.4,129.8z"/>
<path class="st0" d="M255.8,126.8v3.3c0,5.6-0.9,9.4-2.7,11.4s-5.7,3.1-11.2,3.1h-10.2c-6,0-10-1.1-12-3.4
	c-1.8-2.1-2.7-6.2-2.7-12.3c-0.1-3.4,0.2-6.9,0.9-10.3c0.6-2.4,2.1-4.5,4.3-5.7c2.2-1.1,5.5-1.7,10.1-1.7h9.1c4.5,0,7.7,0.5,9.9,1.6
	c3,1.5,4.5,4.3,4.4,8.3H250c0-1.8-1-3.4-2.6-4.1c-1.6-0.7-3.3-1.1-5-1l-5.6-0.1c-0.6,0-2,0-4.3,0.1c-4.4,0.1-7.2,1.1-8.4,2.9
	c-0.9,1.4-1.4,4.4-1.4,9.1c-0.1,2.2,0,4.4,0.3,6.6c0.2,1.5,1.1,2.8,2.4,3.6c1.3,0.7,3.4,1,6.5,1h9.8c3.4,0,5.5-0.4,6.5-1.2
	s1.6-3.1,1.6-6.4h-13.9v-4.9H255.8z"/>
<path class="st0" d="M300.6,134.8c0,4.2-1.4,7-4.1,8.3c-2,1-6.1,1.5-12.2,1.5H277c-4.6,0-8-0.4-10.1-1.2c-2.2-0.8-4-2.5-4.8-4.7
	c-0.8-2.1-1.2-5.5-1.2-10.1c0-5,0.3-8.5,1-10.7c0.6-2.4,2.3-4.3,4.6-5.2c2.2-0.9,5.7-1.4,10.5-1.4h7.3c5.4,0,9.4,0.7,12,2.1
	c2.3,1.2,3.9,3.6,4.1,6.2c0,0.6,0.1,2.4,0.2,5.4v4.8h-34.5c0,4.4,0.8,7.2,2.4,8.4c1.3,0.9,4.1,1.4,8.7,1.4h7c4.1,0,6.8-0.2,8.1-0.6
	c1.9-0.4,3.2-2.3,3-4.2H300.6z M295.3,125.1c-0.1-3.1-0.1-4.8-0.2-5.1c-0.3-1.6-1.4-2.7-3.4-3.2c-2.5-0.4-5-0.6-7.6-0.5h-6.7
	c-4.5,0-7.4,0.4-8.7,1.3c-1.6,1.1-2.5,3.5-2.5,7.4H295.3z"/>
<path class="st0" d="M362.3,127.6c0-7.4-3.7-11.1-11.1-11.1c-4.8,0-8.1,1.1-9.8,3.4c-1.5,2-2.3,5.4-2.3,10.4v14.5h-5.2v-14.8
	c0-4.6-0.6-7.8-1.9-9.7c-1.6-2.4-4.5-3.6-8.8-3.6s-7.5,0.8-9.3,2.3c-2.1,1.7-3.1,4.6-3.1,8.9v17.1h-5.1v-17
	c0-10.8,5.2-16.2,15.5-16.2c2.9-0.1,5.9,0.1,8.8,0.8c2.9,0.8,5.2,2.8,6.5,5.5c2.3-4.2,6.4-6.3,12.1-6.3c2.7-0.1,5.3,0,8,0.3
	c7.2,1.2,10.9,6.5,10.9,15.9v17h-5.1L362.3,127.6z"/>
<path class="st0" d="M413.3,134.8c0,4.2-1.4,7-4.1,8.3c-2,1-6.1,1.5-12.2,1.5h-7.3c-4.6,0-8-0.4-10.1-1.2c-2.2-0.8-4-2.5-4.8-4.7
	c-0.8-2.1-1.2-5.5-1.2-10.1c0-5,0.3-8.5,1-10.7c0.6-2.3,2.3-4.3,4.6-5.2c2.2-0.9,5.7-1.4,10.5-1.4h7.3c5.4,0,9.4,0.7,12,2.1
	c2.4,1.2,3.9,3.5,4.1,6.2c0.1,0.6,0.1,2.4,0.2,5.4v4.8h-34.5c0,4.4,0.8,7.2,2.4,8.4c1.2,0.9,4.1,1.4,8.7,1.4h6.9
	c4.2,0,6.9-0.2,8.1-0.6c1.9-0.4,3.2-2.3,3-4.2H413.3z M407.9,125.1c-0.1-3.1-0.1-4.8-0.2-5.1c-0.3-1.6-1.4-2.7-3.4-3.2
	c-2.5-0.4-5-0.6-7.6-0.5H390c-4.5,0-7.4,0.4-8.7,1.3c-1.6,1.1-2.5,3.5-2.5,7.4H407.9z"/>
<path class="st0" d="M439.7,111.5c4.6,0,8.1,1.2,10.7,3.6c2.6,2.4,3.8,5.8,3.8,10.4v19.2h-5.6v-19.9c0.1-2.3-0.8-4.5-2.4-6.1
	c-1.8-1.5-4.1-2.3-6.4-2.2h-7c-2.3-0.1-4.7,0.7-6.4,2.2c-1.7,1.6-2.6,3.8-2.5,6.1v19.9h-5.6v-19.2c0-4.6,1.3-8,3.8-10.4
	c2.6-2.4,6.1-3.6,10.7-3.6H439.7z"/>
<path class="st0" d="M477.1,116.6v16.3c0,2.5,0.6,4.3,1.9,5.4c1.4,1,3.1,1.5,4.8,1.5v5h-0.4c-4.4,0-7.5-1-9.3-2.9
	c-1.8-1.9-2.7-5.1-2.7-9.5v-15.8h-14.9v-5H494v5H477.1z"/>
<path class="st0" d="M158,65c-0.7,10.2-1.5,20.4-2.2,30.6c-1.1-0.2-2.2-0.3-3.3-0.3h-6.4c-1.1,0-2.1,0.1-3.2,0.3
	c2.9-15.6,5.5-31.2,7.8-46.6s4.4-31.1,6.3-47c1,0.2,1.9,0.3,2.8,0.4c0.9,0.1,1.9,0.2,2.8,0.2c0.9,0,1.7-0.1,2.6-0.2
	c0.9-0.1,1.9-0.3,2.9-0.4c2.5,5.5,5,11,7.7,16.6c2.7,5.6,5.4,11.3,8.1,16.9s5.4,11.1,8,16.4s5.3,10.5,7.7,15.3
	c5.4-10.2,10.9-20.9,16.3-32c5.4-11.1,10.6-22.2,15.5-33.2c1.9,0.4,3.9,0.6,5.9,0.7c1.9,0,3.8-0.3,5.7-0.7
	c0.9,7.8,1.9,16.2,2.9,25.2c1,9,2,17.8,3.1,26.4s2,16.6,3,24.1c1,7.5,1.9,13.4,2.7,18c-1.8-0.2-3.7-0.3-5.5-0.3h-11.1
	c-1.9,0-3.8,0.1-5.7,0.3c-0.4-9.4-1.2-19.5-2.2-30.4s-2.1-21.7-3.2-32.5h-0.3c-5.2,10.7-10.3,21.3-15.3,31.6
	c-5,10.4-10,20.8-14.9,31.2c-0.5-0.1-0.9-0.2-1.3-0.2c-0.4,0-0.9-0.1-1.3-0.1c-0.4,0-0.9,0-1.3,0.1c-0.4,0.1-0.8,0.1-1.3,0.2
	c-4.9-10.2-9.8-20.4-14.7-30.6c-4.9-10.2-9.9-20.5-15.1-31h-0.3C159.8,44.5,158.7,54.8,158,65z"/>
<path class="st0" d="M338.7,12.3c-4.9-2.6-10.4-3.9-15.9-3.8c-4.3,0-8.5,0.9-12.5,2.7c-4.2,1.8-7.9,4.6-11,8
	c-3.4,3.9-6.1,8.4-7.9,13.3c-2.1,6-3.1,12.4-3,18.8c0,5.1,0.7,10.2,2.2,15.1c1.4,4.4,3.6,8.5,6.5,12.1c2.8,3.4,6.3,6.2,10.3,8
	c4.4,2,9.2,3,14,2.8c1.2,0,2.5-0.1,4-0.2c1.5-0.1,3-0.3,4.3-0.5c1.3-0.1,2.6-0.4,3.9-0.8c0.9-0.2,1.8-0.5,2.6-1
	c0.2-1.4,0.3-2.7,0.3-4.1c0-1.6,0.1-3.5,0.1-5.5c0-7.4-0.1-12.8-0.4-16.4c-0.3-3.5-0.4-5.9-0.5-7.2c1.2,0.2,2.4,0.4,3.6,0.5
	c1.5,0.1,3.6,0.2,6.5,0.2c3.3,0,5.7-0.1,7.3-0.2c1.3-0.1,2.5-0.3,3.7-0.5c-0.2,1.2-0.4,2.4-0.5,3.6c-0.1,1.6-0.2,3.5-0.3,5.7
	c-0.1,2.1-0.2,4.4-0.2,6.8s0,4.7,0,6.9v4.5c0,2.3,0,4.4,0,6.3c0,1.4,0.1,2.8,0.3,4.2c-6,1.7-12.1,3.1-18.2,4.1
	c-6,1-12.1,1.5-18.2,1.5c-7.3,0.1-14.6-1-21.6-3.1c-6.2-1.8-12-4.9-17-9c-4.7-3.9-8.5-8.8-11.2-14.3c-2.8-5.9-4.1-12.4-4-18.9
	c0-8.6,1.4-16.2,4.3-22.7c2.7-6.3,6.7-11.8,11.9-16.2c5.3-4.4,11.4-7.8,17.9-9.8c7.3-2.2,14.8-3.3,22.4-3.3c6-0.1,12.1,0.6,17.9,2.1
	c5.2,1.5,10.2,3.5,15,6.1c-0.8,2.4-1.5,4.7-2.1,6.9s-1.3,4.6-1.7,7h-1.9C346.7,18.1,343,14.7,338.7,12.3z"/>
<path class="st0" d="M376.2,19.5c-0.2-5.9-0.4-11.8-0.8-17.7c4.1,0.1,8.1,0.2,12.1,0.4c4,0.2,8,0.3,12.1,0.3c6.8,0,12.7-0.1,18-0.2
	s8.8-0.3,10.6-0.4c-0.4,1.9-0.6,3.8-0.6,5.7c0,1.4,0,2.6,0.1,3.4s0.2,1.7,0.4,2.7c-2.7-0.2-5.5-0.4-8.7-0.5s-6.2-0.4-9.1-0.5
	s-5.6-0.3-8-0.4s-4.1-0.1-5-0.1c-0.4,5-0.5,10-0.6,14.9s-0.1,9.9-0.1,14.9c5.9-0.1,11.3-0.2,16-0.4s9.8-0.4,15-0.6
	c-0.3,1.5-0.5,2.7-0.6,3.5c-0.1,0.8-0.2,1.7-0.2,2.6c0,0.8,0.1,1.5,0.2,2.3c0.1,0.8,0.3,1.9,0.5,3.3c-10.4-0.8-20.7-1.3-31-1.3
	c0,2.9,0,5.8,0,8.7c0,2.9-0.1,5.8-0.1,8.7c0,5.9,0.1,11.6,0.4,17.1c5.2,0,10.4-0.1,15.6-0.4c5.2-0.3,10.4-0.7,15.7-1.4
	c-0.2,1-0.3,1.9-0.4,2.7c-0.1,1.1-0.2,2.3-0.1,3.4c0,1.1,0,2.3,0.1,3.4c0.1,0.7,0.2,1.4,0.4,2c-2.5-0.1-5.5-0.1-9.1-0.2
	c-3.6,0-8.5-0.1-14.8-0.1h-21.6c-2,0-3.6,0-4.6,0.1c-1.1,0.1-1.9,0.1-2.6,0.2c0.3-5.6,0.6-11.4,0.8-17.2c0.2-5.9,0.3-12.6,0.3-20.1
	V39.6C376.5,32.1,376.4,25.3,376.2,19.5z"/>
<path class="st0" d="M445.7,19.5c-0.2-5.9-0.4-11.8-0.8-17.7c1.6,0.2,3.3,0.3,5,0.4s3.9,0.2,6.2,0.2s4.3-0.1,6.2-0.2s3.5-0.3,5-0.4
	c-0.4,5.9-0.7,11.8-0.9,17.7s-0.3,12.6-0.3,20.1v18.6c0,5.2,0,10.2,0.1,15c0.1,4.8,0.1,9,0.2,12.6c5.2,0,10.4-0.2,15.5-0.4
	c5.2-0.3,10.4-0.7,15.7-1.4c-0.2,1-0.3,1.9-0.4,2.7c-0.1,1.1-0.1,2.3-0.1,3.4c0,1.1,0,2.3,0.1,3.4c0.1,0.7,0.2,1.4,0.4,2
	c-2.5-0.1-5.5-0.2-9.1-0.2c-3.6,0-8.5-0.1-14.8-0.1h-21.6c-2,0-3.6,0-4.6,0.1c-1.1,0.1-1.9,0.1-2.6,0.2c0.3-5.6,0.6-11.4,0.8-17.2
	s0.3-12.6,0.2-20.1V39.6C446,32.1,445.9,25.3,445.7,19.5z"/>
<path class="st1" d="M43.2,135.9c0.8,2.8-0.6,5.8-3,6.4l-12.3,3.3c-2.2,0.6-4.5-1.2-5.2-3.9l-4-14.9c-0.7-2.8,0.4-5.5,2.5-6.3
	l12.1-4.3c2.3-0.8,4.9,0.8,5.7,3.8L43.2,135.9L43.2,135.9z"/>
<path class="st2" d="M23.5,61.6c0.8,3-0.5,6.2-2.7,7.4L9.2,75.1c-2,1.1-4.3-0.2-5-3l-4-14.9c-0.7-2.7,0.3-5.9,2.3-7.2l11.5-7.1
	c2.2-1.4,4.6,0,5.4,2.8L23.5,61.6L23.5,61.6z"/>
<path class="st1" d="M66.3,85.5c0.9,3.1-0.6,6.4-3.6,7.8L48.1,99c-2.5,1-5.2-0.6-6-3.6L37.8,79c-0.8-2.9,0.5-6.4,3-7.6l14.3-6.9
	c2.8-1.3,5.7,0.3,6.6,3.4L66.3,85.5L66.3,85.5z"/>
<path class="st2" d="M33.4,98.8c0.8,2.8-0.5,6-2.8,6.9l-12,4.7c-2.1,0.8-4.4-0.8-5.1-3.5L9.4,92c-0.8-2.8,0.4-5.8,2.4-6.7l11.7-5.7
	c2.3-1.1,4.8,0.3,5.5,3.3L33.4,98.8z"/>
<path class="st1" d="M94.1,23.4c0.8,3.8-1,7.8-4.4,9.7l-17.3,9c-2.2,1.3-5.1,0.6-6.4-1.6c-0.3-0.5-0.5-1-0.6-1.6l-4.8-18.1
	c-0.8-3.6,0.7-7.2,3.7-9.3L81.2,1.1c3.3-2,6.8-0.7,7.7,2.8L94.1,23.4L94.1,23.4z"/>
<path class="st3" d="M118.3,114.6c0.9,3.6-1.2,7.2-4.8,8.2l-18.4,4.9c-3.3,0.8-6.5-1.2-7.3-4.4L83,105.2c-0.9-3.3,0.8-6.8,4-8
	l18-6.4c3.1-1.2,6.7,0.4,7.9,3.5c0.1,0.2,0.2,0.5,0.2,0.7L118.3,114.6L118.3,114.6z"/>
<path class="st3" d="M106.2,69.1c0.8,3.7-1.1,7.5-4.6,8.9l-17.8,6.9c-2.7,1.1-5.8-0.3-6.9-3c-0.1-0.3-0.2-0.5-0.2-0.8L71.8,63
	c-0.9-3.4,0.7-7,3.9-8.6L93.1,46c3.4-1.6,6.9-0.2,7.9,3.5C101,49.5,106.2,69,106.2,69.1z"/>
<path class="st2" d="M55.4,44.4c0.8,3.2-0.5,6.7-3.4,8.4l-14.2,7.4c-2.5,1.3-5.1,0-5.9-3.1l-4.4-16.4c-0.8-2.9,0.5-6.6,2.9-8.1
	L44.3,24c2.7-1.6,5.6-0.3,6.4,2.8L55.4,44.4z"/>
<path class="st3" d="M77.2,126.3c0.8,3.1-0.9,6.4-3.7,7.2l-15.1,4c-2.6,0.7-5.4-1.3-6.1-4.2L47.9,117c-0.8-3,0.6-6.1,3.2-7l14.7-5.2
	c2.8-1,5.8,0.7,6.7,4L77.2,126.3L77.2,126.3z"/>
</svg>
