<svg id="Calque_1" data-name="Calque 1" xmlns="http://www.w3.org/2000/svg" viewBox="0 0 497.74 145.72"><defs><style>.cls-1{fill:#fff;}.cls-2{fill:#f49b05;}.cls-2,.cls-3,.cls-4{fill-rule:evenodd;}.cls-3{fill:#ffd301;}.cls-4{fill:#ea660a;}</style></defs><title>logo mgel logement</title><path class="cls-1" d="M192.17,150.8H164.09V117.69h5.62v28.05h22.46Z" transform="translate(-22.09 -6.16)"/><path class="cls-1" d="M233.17,136.11c0,4.39-.53,7.65-1.55,9.7a8.11,8.11,0,0,1-5.31,4.14c-2,.58-5.22.85-9.73.85H210.5c-4.64,0-8-.39-10.12-1.19a7.63,7.63,0,0,1-4.78-4.71c-.77-2.14-1.19-5.53-1.19-10.16,0-4.91.35-8.45,1-10.58a7.85,7.85,0,0,1,4.61-5.25c2.18-1,5.7-1.41,10.53-1.41h6.06c5.2,0,9,.54,11.23,1.59a8.22,8.22,0,0,1,4.47,5.77C232.88,126.94,233.17,130.69,233.17,136.11Zm-5.66-.2v-3.16c0-3.16-.33-5.39-.95-6.73a4.71,4.71,0,0,0-3.47-2.58,34,34,0,0,0-6.69-.43h-5.49c-4.57,0-7.44.49-8.66,1.42-1.43,1.17-2.17,4-2.17,8.37V136c0,4.28.76,7,2.23,8.13,1.17.86,4,1.28,8.47,1.28h5.71a38.07,38.07,0,0,0,6.57-.37,4.73,4.73,0,0,0,3.46-2.49C227.18,141.21,227.51,139,227.51,135.91Z" transform="translate(-22.09 -6.16)"/><path class="cls-1" d="M277.87,133v3.31c0,5.65-.89,9.44-2.69,11.4s-5.67,3.11-11.21,3.11H253.81c-6,0-10-1.14-12-3.44-1.81-2.11-2.71-6.17-2.71-12.29a44.68,44.68,0,0,1,.86-10.26,8.66,8.66,0,0,1,4.31-5.66c2.17-1.15,5.52-1.7,10.12-1.7h9.14c4.45,0,7.72.53,9.85,1.6,3,1.53,4.46,4.27,4.43,8.26h-5.76a4.39,4.39,0,0,0-2.65-4.1,11.07,11.07,0,0,0-5-1l-5.57-.06c-.61,0-2,0-4.32.06-4.38.09-7.22,1.06-8.44,2.92-.92,1.39-1.37,4.41-1.37,9.11a40.58,40.58,0,0,0,.33,6.63,4.82,4.82,0,0,0,2.42,3.58q1.92,1,6.51,1h9.83c3.37,0,5.53-.4,6.52-1.22s1.59-3.07,1.59-6.37H258V133Z" transform="translate(-22.09 -6.16)"/><path class="cls-1" d="M322.74,141q0,6.33-4.1,8.26c-2.05,1-6.14,1.52-12.23,1.52h-7.32c-4.63,0-8-.39-10.13-1.19a7.76,7.76,0,0,1-4.77-4.71c-.79-2.09-1.18-5.5-1.18-10.11,0-5,.34-8.54,1.05-10.68a7.75,7.75,0,0,1,4.59-5.2c2.16-.92,5.67-1.38,10.51-1.38h7.34q8.07,0,11.95,2.13a7.66,7.66,0,0,1,4.12,6.19c.05.56.11,2.4.17,5.44v4.82H288.26c0,4.39.75,7.2,2.37,8.36,1.26.9,4.15,1.36,8.74,1.36h7c4.13,0,6.83-.18,8.06-.58a3.91,3.91,0,0,0,3-4.23Zm-5.33-9.73c-.07-3.09-.13-4.77-.2-5.07q-.4-2.44-3.4-3.16a39,39,0,0,0-7.56-.47h-6.74c-4.51,0-7.42.42-8.74,1.29-1.65,1.06-2.48,3.54-2.51,7.41Z" transform="translate(-22.09 -6.16)"/><path class="cls-1" d="M384.4,133.74c0-7.42-3.71-11.15-11.15-11.15-4.78,0-8.06,1.14-9.83,3.36-1.54,2-2.31,5.44-2.31,10.39V150.8h-5.24V136c0-4.57-.65-7.8-1.88-9.74-1.58-2.41-4.5-3.63-8.8-3.63s-7.48.76-9.3,2.27c-2.06,1.68-3.07,4.64-3.07,8.88l0,17.06H327.7v-17q0-16.18,15.5-16.16a34.08,34.08,0,0,1,8.76.79A10.6,10.6,0,0,1,358.5,124c2.31-4.16,6.36-6.26,12.15-6.26a69.7,69.7,0,0,1,8,.27q10.86,1.83,10.88,15.89v17h-5.08Z" transform="translate(-22.09 -6.16)"/><path class="cls-1" d="M435.35,141c0,4.22-1.39,7-4.12,8.26-2,1-6.13,1.52-12.24,1.52h-7.31c-4.63,0-8-.39-10.14-1.19a7.79,7.79,0,0,1-4.76-4.71c-.78-2.09-1.17-5.5-1.17-10.11,0-5,.33-8.54,1-10.68a7.84,7.84,0,0,1,4.57-5.2c2.19-.92,5.69-1.38,10.54-1.38h7.32c5.39,0,9.39.71,11.95,2.13a7.53,7.53,0,0,1,4.1,6.19c.1.56.13,2.4.22,5.44v4.82h-34.5c0,4.39.76,7.2,2.37,8.36,1.24.9,4.15,1.36,8.72,1.36h6.94c4.17,0,6.88-.18,8.1-.58a3.86,3.86,0,0,0,3-4.23ZM430,131.29c-.06-3.09-.12-4.77-.2-5.07-.28-1.63-1.42-2.68-3.39-3.16a39.21,39.21,0,0,0-7.57-.47h-6.77c-4.48,0-7.4.42-8.72,1.29-1.65,1.06-2.48,3.54-2.51,7.41Z" transform="translate(-22.09 -6.16)"/><path class="cls-1" d="M461.77,117.69q6.83,0,10.66,3.55t3.83,10.38V150.8h-5.63V130.92a7.9,7.9,0,0,0-2.42-6.14,9.36,9.36,0,0,0-6.44-2.19h-7a9.22,9.22,0,0,0-6.44,2.19,7.81,7.81,0,0,0-2.45,6.14V150.8H440.3V131.62q0-6.83,3.82-10.38c2.56-2.36,6.11-3.55,10.69-3.55Z" transform="translate(-22.09 -6.16)"/><path class="cls-1" d="M499.18,122.72V139c0,2.5.63,4.31,1.92,5.37a8.12,8.12,0,0,0,4.78,1.46v5h-.39q-6.56,0-9.27-2.86c-1.81-1.9-2.7-5.06-2.7-9.47V122.72h-14.9v-5h37.47v5Z" transform="translate(-22.09 -6.16)"/><path class="cls-1" d="M180.1,71.13q-1.09,15.32-2.18,30.56a21.23,21.23,0,0,0-3.28-.26h-6.35a20.8,20.8,0,0,0-3.2.26q4.36-23.47,7.78-46.64T179.14,8c1,.17,1.92.31,2.81.45a18.45,18.45,0,0,0,2.8.21,18,18,0,0,0,2.57-.21c.91-.14,1.87-.28,2.87-.45q3.69,8.19,7.7,16.63c2.7,5.64,5.37,11.26,8.07,16.86s5.37,11.07,8,16.44,5.25,10.47,7.7,15.29q8.17-15.31,16.3-32T253.49,8a30.9,30.9,0,0,0,5.89.66A30.08,30.08,0,0,0,265.09,8Q266.47,19.7,268,33.21c1.05,9,2.05,17.81,3.07,26.4s2,16.62,3,24.09,1.9,13.44,2.72,18c-1.82-.17-3.66-.26-5.54-.26h-11.1c-1.92,0-3.83.09-5.74.26-.43-9.38-1.19-19.49-2.24-30.43S250.1,49.54,249,38.81h-.26q-7.8,16.1-15.29,31.64c-5,10.36-10,20.8-14.88,31.24-.46-.08-.88-.15-1.3-.19a12.87,12.87,0,0,0-1.29-.07c-.43,0-.89,0-1.3.07s-.83.11-1.3.19Q206,86.42,198.71,71.13t-15.08-31h-.27C181.92,50.62,180.81,61,180.1,71.13Z" transform="translate(-22.09 -6.16)"/><path class="cls-1" d="M360.77,18.44a31.63,31.63,0,0,0-15.93-3.77,31.2,31.2,0,0,0-12.48,2.66,32,32,0,0,0-11,8,41.14,41.14,0,0,0-7.85,13.33,53.33,53.33,0,0,0-3,18.77,49.66,49.66,0,0,0,2.24,15.15,36.31,36.31,0,0,0,6.49,12.08,28.77,28.77,0,0,0,10.34,8A32.28,32.28,0,0,0,343.6,95.5c1.18,0,2.5-.07,4-.19s3-.31,4.34-.49a24.86,24.86,0,0,0,3.89-.75,9.2,9.2,0,0,0,2.59-1,30.63,30.63,0,0,0,.33-4.12c0-1.62.06-3.46.06-5.46,0-7.38-.12-12.83-.39-16.36s-.44-5.88-.51-7.18a29,29,0,0,0,3.59.5c1.51.14,3.65.2,6.48.2,3.25,0,5.67-.06,7.26-.2a29.53,29.53,0,0,0,3.74-.5,26,26,0,0,0-.48,3.57c-.13,1.64-.24,3.52-.33,5.67S378,73.59,378,76s0,4.71,0,6.87V87.4c0,2.26,0,4.38,0,6.32a28.14,28.14,0,0,0,.33,4.19A158.69,158.69,0,0,1,360.1,102a114.14,114.14,0,0,1-18.2,1.49,72,72,0,0,1-21.6-3.08,48.29,48.29,0,0,1-17.05-9,41.85,41.85,0,0,1-11.17-14.31,43.06,43.06,0,0,1-4-18.93c0-8.62,1.43-16.22,4.29-22.72A44.29,44.29,0,0,1,304.22,19.2a51.09,51.09,0,0,1,17.93-9.78,74.68,74.68,0,0,1,22.4-3.26,67.8,67.8,0,0,1,17.9,2.12,73.72,73.72,0,0,1,15,6.11c-.75,2.37-1.45,4.68-2.14,6.94s-1.25,4.64-1.7,7h-1.91A33.88,33.88,0,0,0,360.77,18.44Z" transform="translate(-22.09 -6.16)"/><path class="cls-1" d="M398.32,25.64c-.17-5.88-.43-11.75-.77-17.67q6.13.12,12.11.36c4,.2,8,.3,12.12.3,6.75,0,12.71-.08,18-.21s8.76-.28,10.58-.45a23.78,23.78,0,0,0-.56,5.71c0,1.45.05,2.6.13,3.42s.24,1.72.43,2.72c-2.66-.18-5.53-.36-8.69-.54s-6.17-.36-9.13-.53-5.6-.33-8-.43-4.06-.13-5-.13c-.35,5-.53,10-.59,14.87s-.07,9.86-.07,14.88c5.92-.09,11.27-.21,16-.4s9.78-.38,15-.64c-.27,1.54-.48,2.73-.56,3.55A24.1,24.1,0,0,0,449.1,53a15,15,0,0,0,.21,2.25c.15.78.31,1.89.49,3.34q-15.54-1.26-31-1.27c0,2.9,0,5.8,0,8.73s-.07,5.84-.07,8.74c0,5.93.11,11.6.37,17.07,5.18,0,10.38-.15,15.56-.42s10.41-.72,15.7-1.38c-.19,1-.34,1.92-.41,2.72a32.57,32.57,0,0,0-.15,3.43,32.13,32.13,0,0,0,.15,3.39,8.21,8.21,0,0,0,.41,2c-2.48-.08-5.49-.15-9.08-.19s-8.52-.07-14.82-.07h-21.6c-2,0-3.56,0-4.64.07s-1.93.11-2.64.19q.51-8.44.77-17.23t.26-20.15V45.76Q398.58,34.44,398.32,25.64Z" transform="translate(-22.09 -6.16)"/><path class="cls-1" d="M467.83,25.64c-.17-5.88-.43-11.75-.77-17.67,1.56.17,3.25.31,5.05.45s3.88.21,6.16.21,4.33-.08,6.17-.21,3.49-.28,5-.45c-.36,5.92-.68,11.79-.86,17.67s-.3,12.57-.3,20.12V64.33c0,5.2,0,10.18.07,15s.1,9,.2,12.57c5.2,0,10.37-.15,15.55-.42s10.42-.72,15.69-1.38c-.2,1-.32,1.92-.41,2.72a34.18,34.18,0,0,0-.12,3.43,33.67,33.67,0,0,0,.12,3.39,8.69,8.69,0,0,0,.41,2c-2.45-.08-5.48-.15-9.08-.19s-8.53-.07-14.8-.07h-21.6c-2,0-3.59,0-4.64.07s-1.93.11-2.65.19q.51-8.44.77-17.23t.24-20.15V45.76Q468.07,34.44,467.83,25.64Z" transform="translate(-22.09 -6.16)"/><path class="cls-2" d="M65.34,142.07c.75,2.82-.57,5.78-3,6.41L50,151.77c-2.17.59-4.52-1.23-5.22-3.9l-4-14.94c-.73-2.78.41-5.54,2.54-6.29l12.08-4.28c2.33-.82,4.87.81,5.66,3.77l4.24,15.94Z" transform="translate(-22.09 -6.16)"/><path class="cls-3" d="M45.58,67.79c.79,3-.45,6.23-2.68,7.39L31.28,81.25c-2,1.07-4.25-.22-5-3l-4-14.93c-.72-2.67.29-5.93,2.26-7.17L36,49.07c2.18-1.36,4.64,0,5.39,2.79l4.23,15.93Z" transform="translate(-22.09 -6.16)"/><path class="cls-2" d="M88.42,91.64a6.56,6.56,0,0,1-3.57,7.8l-14.62,5.69c-2.52,1-5.19-.57-6-3.61L59.88,85.13c-.78-2.91.55-6.37,3-7.55l14.28-6.9c2.75-1.33,5.72.26,6.56,3.38l4.67,17.58Z" transform="translate(-22.09 -6.16)"/><path class="cls-3" d="M55.47,104.93c.75,2.83-.51,6-2.82,6.9l-12,4.69c-2.1.81-4.41-.8-5.12-3.46l-4-14.94c-.75-2.8.35-5.75,2.4-6.74l11.74-5.66C48,84.63,50.43,86,51.22,89l4.25,15.93Z" transform="translate(-22.09 -6.16)"/><path class="cls-2" d="M116.18,29.6a8.9,8.9,0,0,1-4.42,9.67l-17.3,9a4.67,4.67,0,0,1-7-3.16l-4.8-18.08a9,9,0,0,1,3.69-9.27l16.9-10.5c3.27-2,6.8-.72,7.71,2.75l5.22,19.57Z" transform="translate(-22.09 -6.16)"/><path class="cls-4" d="M140.41,120.81a6.8,6.8,0,0,1-4.8,8.21l-18.37,4.88a6.13,6.13,0,0,1-7.35-4.45l-4.81-18.08a6.66,6.66,0,0,1,4-8l18-6.36a6.1,6.1,0,0,1,8.11,4.21l5.19,19.57Z" transform="translate(-22.09 -6.16)"/><path class="cls-4" d="M128.3,75.21a7.85,7.85,0,0,1-4.61,8.94l-17.84,6.93a5.34,5.34,0,0,1-7.17-3.79L93.87,69.2a7.63,7.63,0,0,1,3.87-8.61l17.45-8.43c3.37-1.63,6.93-.17,7.9,3.48l5.21,19.57Z" transform="translate(-22.09 -6.16)"/><path class="cls-3" d="M77.49,50.53a7.57,7.57,0,0,1-3.41,8.39L59.92,66.31c-2.46,1.28-5.06,0-5.87-3.1L49.69,46.84c-.76-2.91.5-6.61,2.9-8.09l13.83-8.6c2.66-1.64,5.56-.34,6.39,2.8l4.68,17.58Z" transform="translate(-22.09 -6.16)"/><path class="cls-4" d="M99.28,132.46c.82,3.13-.86,6.45-3.73,7.21l-15.08,4c-2.6.69-5.36-1.25-6.14-4.17L70,123.14c-.81-3,.62-6.13,3.17-7l14.74-5.2c2.82-1,5.83.7,6.72,4l4.67,17.58Z" transform="translate(-22.09 -6.16)"/></svg>